<svg xmlns="http://www.w3.org/2000/svg" width="600" height="600" viewBox="0 0 600 600">
    <rect width="100%" height="100%" fill="#ea580c" rx="100px" />
    <svg xmlns="http://www.w3.org/2000/svg" width="500" height="500" viewBox="0 0 24 24" x="50" y="50" fill="white"
        stroke="rgba(0, 0, 0, 1)" stroke-width="2.2" stroke-linecap="round" stroke-linejoin="round" fill-opacity="1">
        <path d="M16 4h2a2 2 0 0 1 2 2v14a2 2 0 0 1-2 2H6a2 2 0 0 1-2-2V6a2 2 0 0 1 2-2h2" />
        <path d="M12 11h4" />
        <path d="M12 16h4" />
        <path d="M8 11h.01" />
        <path d="M8 16h.01" />
        <rect width="8" height="4" x="8" y="2" rx="1" ry="1" />
    </svg>
</svg>